<svg version="1.1" xmlns="http://www.w3.org/2000/svg" viewBox="0 0 783.1181640625 665.473496697865" width="783.1181640625" height="665.473496697865">
  <!-- svg-source:excalidraw -->
  
  <defs>
    <style class="style-fonts">
      @font-face {
        font-family: "Virgil";
        src: url("https://unpkg.com/@excalidraw/excalidraw@undefined/dist/excalidraw-assets/Virgil.woff2");
      }
      @font-face {
        font-family: "Cascadia";
        src: url("https://unpkg.com/@excalidraw/excalidraw@undefined/dist/excalidraw-assets/Cascadia.woff2");
      }
      @font-face {
        font-family: "Assistant";
        src: url("https://unpkg.com/@excalidraw/excalidraw@undefined/dist/excalidraw-assets/Assistant-Regular.woff2");
      }
    </style>
    
  </defs>
  <rect x="0" y="0" width="783.1181640625" height="665.473496697865" fill="#ffffff"></rect><g stroke-linecap="round" transform="translate(452.6181640625 141.69641569786504) rotate(0 69 88.49999999999997)"><path d="M1.83 1.74 L137.31 1.48 L139.09 176.95 L1.33 178.17" stroke="none" stroke-width="0" fill="#ffec99"></path><path d="M0 0 C31.42 0.33, 58.6 -0.06, 138 0 M0 0 C29.37 -0.42, 58.64 -0.31, 138 0 M138 0 C135.28 51.89, 136.94 100.67, 138 177 M138 0 C138.11 48.79, 137.82 96.72, 138 177 M138 177 C88.84 176.72, 38.71 174.56, 0 177 M138 177 C103.4 177.48, 67.98 176.83, 0 177 M0 177 C-1.71 141.98, -0.85 103.6, 0 0 M0 177 C0.07 134.44, -0.46 90.71, 0 0" stroke="#1e1e1e" stroke-width="2" fill="none"></path></g><g transform="translate(193.4464258240145 10) rotate(0 173.98828125000003 20.700000000000003)"><text x="0" y="0" font-family="Helvetica, Segoe UI Emoji" font-size="36px" fill="#1e1e1e" text-anchor="start" style="white-space: pre;" direction="ltr" dominant-baseline="text-before-edge">分布式事务-TCC 架构</text></g><g stroke-linecap="round" transform="translate(123.46167092131475 298.84641569786504) rotate(0 85.5 45)"><path d="M22.5 0 C54.51 -2.5, 87.65 -2.94, 148.5 0 C162.75 -1.75, 174.11 4.37, 171 22.5 C170.24 34.56, 168.93 40.89, 171 67.5 C170.29 83, 163.97 91.42, 148.5 90 C104.12 93.33, 52.01 93.67, 22.5 90 C10.86 86.65, 1.22 83.48, 0 67.5 C1.64 58.26, -2.37 44.48, 0 22.5 C2.46 4.13, 7.83 3.24, 22.5 0" stroke="none" stroke-width="0" fill="#a5d8ff"></path><path d="M22.5 0 C53.85 -1.61, 87.06 1.35, 148.5 0 M22.5 0 C68.77 -0.23, 114.92 0.79, 148.5 0 M148.5 0 C164.15 -1.05, 169.41 7.59, 171 22.5 M148.5 0 C165.37 -1.17, 172.8 7.01, 171 22.5 M171 22.5 C169.4 29.94, 169.24 42.16, 171 67.5 M171 22.5 C170.56 33.73, 170.81 45.9, 171 67.5 M171 67.5 C172.16 81.87, 162.6 91.67, 148.5 90 M171 67.5 C169.86 82.92, 165.24 91.41, 148.5 90 M148.5 90 C108.4 90.44, 66.09 89.56, 22.5 90 M148.5 90 C116.19 90.93, 82.87 91.07, 22.5 90 M22.5 90 C9.25 91.7, -0.82 84.31, 0 67.5 M22.5 90 C7.94 90.85, -2.06 83.88, 0 67.5 M0 67.5 C0.1 54.01, -0.42 43.38, 0 22.5 M0 67.5 C-0.03 57.39, -0.51 46.02, 0 22.5 M0 22.5 C-0.1 8.01, 7.89 0.52, 22.5 0 M0 22.5 C-0.73 7.4, 8.4 1.72, 22.5 0" stroke="#1e1e1e" stroke-width="2" fill="none"></path></g><g transform="translate(131.92749123381475 327.746415697865) rotate(0 77.0341796875 16.100000000000023)"><text x="77.0341796875" y="0" font-family="Helvetica, Segoe UI Emoji" font-size="28px" fill="#1e1e1e" text-anchor="middle" style="white-space: pre;" direction="ltr" dominant-baseline="text-before-edge">TX Manager</text></g><g stroke-linecap="round" transform="translate(602.1181640625 185.19641569786504) rotate(0 85.5 45)"><path d="M22.5 0 C65.93 -3.19, 102.81 -0.16, 148.5 0 C159.93 2.24, 171.45 9.3, 171 22.5 C169.62 33.47, 169.38 46.49, 171 67.5 C173.29 82.53, 164.25 87.88, 148.5 90 C105.56 85.46, 66.74 91.62, 22.5 90 C10.36 90.61, -3.17 81.95, 0 67.5 C1.12 51.88, -2.93 37.09, 0 22.5 C2.86 5.11, 9.61 -3.03, 22.5 0" stroke="none" stroke-width="0" fill="#ffc9c9"></path><path d="M22.5 0 C59.67 1.23, 100.93 -0.41, 148.5 0 M22.5 0 C68.86 -0.53, 116.41 0.44, 148.5 0 M148.5 0 C165.39 1.82, 172.77 6, 171 22.5 M148.5 0 C162.33 0.12, 171.26 7.06, 171 22.5 M171 22.5 C171.72 38.54, 169.52 49.53, 171 67.5 M171 22.5 C170.77 31.66, 170.37 41.18, 171 67.5 M171 67.5 C172.97 83.76, 162.07 88.91, 148.5 90 M171 67.5 C172.8 80.47, 165.64 92.11, 148.5 90 M148.5 90 C111.36 89.95, 75.2 92.4, 22.5 90 M148.5 90 C119.84 90.02, 92.16 90.91, 22.5 90 M22.5 90 C7.88 90.02, -0.34 80.87, 0 67.5 M22.5 90 C7.85 89.05, 0.63 84.27, 0 67.5 M0 67.5 C2.15 51.77, -1.3 35.28, 0 22.5 M0 67.5 C0.85 51.25, -0.51 34.42, 0 22.5 M0 22.5 C-1.03 6.9, 7.2 0.68, 22.5 0 M0 22.5 C1.19 8.51, 7.12 -1.81, 22.5 0" stroke="#1e1e1e" stroke-width="2" fill="none"></path></g><g transform="translate(615.2392578125 197.99641569786505) rotate(0 72.37890625 32.19999999999999)"><text x="72.37890625" y="0" font-family="Helvetica, Segoe UI Emoji" font-size="28px" fill="#1e1e1e" text-anchor="middle" style="white-space: pre;" direction="ltr" dominant-baseline="text-before-edge">TCC </text><text x="72.37890625" y="32.199999999999996" font-family="Helvetica, Segoe UI Emoji" font-size="28px" fill="#1e1e1e" text-anchor="middle" style="white-space: pre;" direction="ltr" dominant-baseline="text-before-edge">Component</text></g><g stroke-linecap="round" transform="translate(126.6181640625 89.34201169786499) rotate(0 85.5 45)"><path d="M22.5 0 C51.57 -3.22, 77.39 -1.24, 148.5 0 C160.34 -2.31, 168.12 5.87, 171 22.5 C171.85 37.7, 170.16 50.57, 171 67.5 C170.03 79.14, 161.73 89.02, 148.5 90 C118.5 89.07, 83.87 92.76, 22.5 90 C4.12 93.05, -1.68 82.15, 0 67.5 C-3.22 50.61, -3.86 34.55, 0 22.5 C0.54 3.94, 10.03 -0.28, 22.5 0" stroke="none" stroke-width="0" fill="#b2f2bb"></path><path d="M22.5 0 C61.62 -2.46, 98.36 -0.81, 148.5 0 M22.5 0 C69.39 -1.17, 116.73 -0.32, 148.5 0 M148.5 0 C162.46 -1.67, 169.31 7.44, 171 22.5 M148.5 0 C165.43 0.35, 171.7 9.65, 171 22.5 M171 22.5 C171.49 33.35, 172.37 43.19, 171 67.5 M171 22.5 C171.41 33.59, 170.58 44.67, 171 67.5 M171 67.5 C171.09 82.04, 162.99 88.03, 148.5 90 M171 67.5 C171.03 80.49, 163.16 91.59, 148.5 90 M148.5 90 C101.89 92.36, 58.61 92.28, 22.5 90 M148.5 90 C110.86 89.37, 71.98 89.33, 22.5 90 M22.5 90 C5.53 89.03, 1.18 81.5, 0 67.5 M22.5 90 C7.74 91.26, -1.73 82.85, 0 67.5 M0 67.5 C-1.41 52.44, -0.41 38.61, 0 22.5 M0 67.5 C-0.22 57.08, -0.22 48.64, 0 22.5 M0 22.5 C-1.09 7.69, 9.35 1.55, 22.5 0 M0 22.5 C0.83 8.88, 6.51 -1.05, 22.5 0" stroke="#1e1e1e" stroke-width="2" fill="none"></path></g><g transform="translate(142.1181640625 102.142011697865) rotate(0 70 32.19999999999999)"><text x="70" y="0" font-family="Helvetica, Segoe UI Emoji" font-size="28px" fill="#1e1e1e" text-anchor="middle" style="white-space: pre;" direction="ltr" dominant-baseline="text-before-edge">业务应用方</text><text x="70" y="32.199999999999996" font-family="Helvetica, Segoe UI Emoji" font-size="28px" fill="#1e1e1e" text-anchor="middle" style="white-space: pre;" direction="ltr" dominant-baseline="text-before-edge">Application</text></g><g stroke-linecap="round" transform="translate(461.6181640625 156.19641569786504) rotate(0 60 21)"><path d="M10.5 0 C48.76 -0.72, 88.49 -3.41, 109.5 0 C120.08 -2.28, 119.6 0.79, 120 10.5 C122.97 20.61, 122.88 26.78, 120 31.5 C123.07 40.78, 116.88 43.94, 109.5 42 C75.52 43.79, 35.73 44.42, 10.5 42 C3.57 42.35, 0.76 38.32, 0 31.5 C2.34 24.2, -2.83 21.05, 0 10.5 C-2.35 6.12, 3.31 -1.75, 10.5 0" stroke="none" stroke-width="0" fill="#ffd43b"></path><path d="M10.5 0 C30.47 0.12, 51.23 1.73, 109.5 0 M10.5 0 C37.62 0.83, 66.67 1.18, 109.5 0 M109.5 0 C117.82 -1.08, 120.06 1.56, 120 10.5 M109.5 0 C115.26 0.51, 120.67 1.44, 120 10.5 M120 10.5 C119.99 14.04, 119.83 21.52, 120 31.5 M120 10.5 C120.76 15.15, 120.41 21.47, 120 31.5 M120 31.5 C121.71 40.48, 115.9 42.39, 109.5 42 M120 31.5 C118.31 38.21, 118.09 41.74, 109.5 42 M109.5 42 C87.73 44.08, 68.2 43.7, 10.5 42 M109.5 42 C88.37 41.71, 64.49 42.16, 10.5 42 M10.5 42 C3.66 41.74, 0.72 38.59, 0 31.5 M10.5 42 C1.28 39.85, 1.12 38.83, 0 31.5 M0 31.5 C-0.43 24.99, -0.76 20.28, 0 10.5 M0 31.5 C1.13 25.53, 0.75 18.26, 0 10.5 M0 10.5 C-1.95 3.29, 5.4 1.95, 10.5 0 M0 10.5 C-0.52 3.42, 4.79 2.3, 10.5 0" stroke="#1e1e1e" stroke-width="2" fill="none"></path></g><g transform="translate(507.5458984375 165.69641569786504) rotate(0 14.072265625 11.5)"><text x="14.072265625" y="0" font-family="Helvetica, Segoe UI Emoji" font-size="20px" fill="#1e1e1e" text-anchor="middle" style="white-space: pre;" direction="ltr" dominant-baseline="text-before-edge">Try</text></g><g stroke-linecap="round" transform="translate(461.6181640625 209.19641569786504) rotate(0 60 21)"><path d="M10.5 0 C33.38 0.27, 65.29 -0.75, 109.5 0 C117.36 3.27, 121.08 7.08, 120 10.5 C119.97 15.95, 116.89 27.01, 120 31.5 C118.86 40.01, 113.27 41.22, 109.5 42 C79.98 43.79, 48.57 39.62, 10.5 42 C2 39.29, 2.49 41.04, 0 31.5 C0.03 25.27, -2.85 20.72, 0 10.5 C3.48 4.58, 2.74 2.11, 10.5 0" stroke="none" stroke-width="0" fill="#ffd43b"></path><path d="M10.5 0 C47.04 0.79, 82.71 -0.6, 109.5 0 M10.5 0 C49.04 -0.76, 88.45 -0.27, 109.5 0 M109.5 0 C116.04 1.82, 119.91 2.28, 120 10.5 M109.5 0 C118.43 -0.04, 121.29 4.84, 120 10.5 M120 10.5 C120.76 18.49, 118.76 23.09, 120 31.5 M120 10.5 C121.07 16.92, 120.24 21.27, 120 31.5 M120 31.5 C118.53 40.25, 118.26 41.17, 109.5 42 M120 31.5 C121.89 37.93, 116.97 40.14, 109.5 42 M109.5 42 C84.06 41.29, 59.6 42.95, 10.5 42 M109.5 42 C81.47 42.24, 50.86 42.77, 10.5 42 M10.5 42 C4.32 42.75, 1.27 37.83, 0 31.5 M10.5 42 C2.09 42.33, 0.77 40.79, 0 31.5 M0 31.5 C1.59 27.45, -1.67 23.89, 0 10.5 M0 31.5 C0.9 23.4, 0.82 15.92, 0 10.5 M0 10.5 C-0.6 3.59, 3.48 -0.71, 10.5 0 M0 10.5 C1.78 4.37, 3.1 0.52, 10.5 0" stroke="#1e1e1e" stroke-width="2" fill="none"></path></g><g transform="translate(486.61328125 218.69641569786504) rotate(0 35.0048828125 11.5)"><text x="35.0048828125" y="0" font-family="Helvetica, Segoe UI Emoji" font-size="20px" fill="#1e1e1e" text-anchor="middle" style="white-space: pre;" direction="ltr" dominant-baseline="text-before-edge">Confirm</text></g><g stroke-linecap="round" transform="translate(461.6181640625 262.19641569786506) rotate(0 60 21)"><path d="M10.5 0 C38.74 0.44, 64.66 -0.56, 109.5 0 C118.43 -2.2, 117.74 2.86, 120 10.5 C117.91 18.46, 121.22 24.29, 120 31.5 C119.63 35.46, 113.77 38.64, 109.5 42 C81.93 39.27, 48.3 38.56, 10.5 42 C5.09 44.63, 3.07 40.65, 0 31.5 C3.13 23.29, 2.65 19.53, 0 10.5 C-0.08 5.89, 5.61 0.7, 10.5 0" stroke="none" stroke-width="0" fill="#ffd43b"></path><path d="M10.5 0 C43.54 -1.31, 75.8 -1.79, 109.5 0 M10.5 0 C31.89 -0.58, 52.22 0.56, 109.5 0 M109.5 0 C116.45 -1.03, 121.46 5, 120 10.5 M109.5 0 C118.65 -0.94, 119.04 1.77, 120 10.5 M120 10.5 C121.67 16.57, 120.33 26.33, 120 31.5 M120 10.5 C120.47 15.1, 120.75 20.65, 120 31.5 M120 31.5 C118.31 38.88, 116.58 41.92, 109.5 42 M120 31.5 C121.74 37.1, 114.68 42.87, 109.5 42 M109.5 42 C74.95 42.63, 38.15 41.72, 10.5 42 M109.5 42 C73.8 41.75, 40.1 41.42, 10.5 42 M10.5 42 C4.58 40.99, 0.52 39.89, 0 31.5 M10.5 42 C2.5 43.75, 1.72 38.11, 0 31.5 M0 31.5 C-1.45 27.4, -0.62 19.04, 0 10.5 M0 31.5 C0.09 26.56, -0.36 21.52, 0 10.5 M0 10.5 C-0.88 3.29, 1.86 -0.21, 10.5 0 M0 10.5 C-1.46 4.2, 3.95 -2.19, 10.5 0" stroke="#1e1e1e" stroke-width="2" fill="none"></path></g><g transform="translate(490.490234375 271.69641569786506) rotate(0 31.1279296875 11.5)"><text x="31.1279296875" y="0" font-family="Helvetica, Segoe UI Emoji" font-size="20px" fill="#1e1e1e" text-anchor="middle" style="white-space: pre;" direction="ltr" dominant-baseline="text-before-edge">Cancel</text></g><g stroke-linecap="round" transform="translate(448.6181640625 368.99641569786513) rotate(0 69 88.5)"><path d="M-0.99 -1.46 L136.37 -1.69 L137.28 175.16 L-0.14 175.34" stroke="none" stroke-width="0" fill="#ffec99"></path><path d="M0 0 C34.09 -2.94, 65.32 -3.28, 138 0 M0 0 C31.3 -1.55, 61.22 -0.78, 138 0 M138 0 C135.69 61.74, 136.34 124.36, 138 177 M138 0 C138.3 54.51, 137.86 109.42, 138 177 M138 177 C107.91 177.67, 78.03 174.03, 0 177 M138 177 C88.46 178.07, 39.14 176.84, 0 177 M0 177 C-2.3 120.41, 1.49 66.71, 0 0 M0 177 C0.05 133.83, -0.33 89.8, 0 0" stroke="#1e1e1e" stroke-width="2" fill="none"></path></g><g stroke-linecap="round" transform="translate(602.1181640625 420.496415697865) rotate(0 85.5 45)"><path d="M22.5 0 C51.4 3.36, 88.14 0.59, 148.5 0 C164.77 0.98, 171.73 10.24, 171 22.5 C169.19 32.47, 174.07 44.55, 171 67.5 C172.23 82.8, 164.32 91.05, 148.5 90 C114.19 93.1, 82.91 86.8, 22.5 90 C8.8 88.31, -0.42 84.82, 0 67.5 C2.9 52.51, 2.56 43.88, 0 22.5 C3.59 8.66, 5.26 1.09, 22.5 0" stroke="none" stroke-width="0" fill="#ffc9c9"></path><path d="M22.5 0 C72.46 -0.91, 121.71 0.69, 148.5 0 M22.5 0 C68.37 0.92, 116.47 0.19, 148.5 0 M148.5 0 C164.34 -1.35, 171.2 6.8, 171 22.5 M148.5 0 C164.96 0.24, 171.11 8.06, 171 22.5 M171 22.5 C169.74 35.17, 169.97 49.91, 171 67.5 M171 22.5 C170.4 34.52, 171.81 45.55, 171 67.5 M171 67.5 C171.22 84.07, 164.38 89.1, 148.5 90 M171 67.5 C171.22 82.98, 165.71 87.78, 148.5 90 M148.5 90 C121.13 88.99, 97.86 88.67, 22.5 90 M148.5 90 C102.16 89.79, 56 89.68, 22.5 90 M22.5 90 C6.78 88.16, -0.14 80.84, 0 67.5 M22.5 90 C6.86 91.72, 0.46 83.37, 0 67.5 M0 67.5 C1.34 59.13, -1.5 47.27, 0 22.5 M0 67.5 C-0.3 54.47, 0.06 41.38, 0 22.5 M0 22.5 C0.78 8.04, 7.04 1.22, 22.5 0 M0 22.5 C0.78 5.28, 7.57 -0.07, 22.5 0" stroke="#1e1e1e" stroke-width="2" fill="none"></path></g><g transform="translate(615.2392578125 433.296415697865) rotate(0 72.37890625 32.19999999999999)"><text x="72.37890625" y="0" font-family="Helvetica, Segoe UI Emoji" font-size="28px" fill="#1e1e1e" text-anchor="middle" style="white-space: pre;" direction="ltr" dominant-baseline="text-before-edge">TCC </text><text x="72.37890625" y="32.199999999999996" font-family="Helvetica, Segoe UI Emoji" font-size="28px" fill="#1e1e1e" text-anchor="middle" style="white-space: pre;" direction="ltr" dominant-baseline="text-before-edge">Component</text></g><g stroke-linecap="round" transform="translate(461.6181640625 391.49641569786513) rotate(0 60 21)"><path d="M10.5 0 C46.74 1.41, 81.16 3.17, 109.5 0 C113.65 1.19, 116.74 1.43, 120 10.5 C121.53 17.12, 121.11 24.19, 120 31.5 C118.71 37.58, 115.85 40.96, 109.5 42 C71.45 38.93, 30.39 42.93, 10.5 42 C2.49 42.1, -0.67 41.43, 0 31.5 C3.32 27.97, -2.51 23.2, 0 10.5 C3.57 4.81, 1.05 0.46, 10.5 0" stroke="none" stroke-width="0" fill="#ffd43b"></path><path d="M10.5 0 C32.21 0.66, 49.93 -1.6, 109.5 0 M10.5 0 C42.59 -0.14, 73.94 0.18, 109.5 0 M109.5 0 C117.77 0.21, 120.1 3.99, 120 10.5 M109.5 0 C116.98 -1.06, 119.48 2.29, 120 10.5 M120 10.5 C118.99 16.62, 118.27 17.42, 120 31.5 M120 10.5 C120.2 18.84, 120.53 25.16, 120 31.5 M120 31.5 C120.19 38.92, 118.42 40.07, 109.5 42 M120 31.5 C117.9 40.64, 115.63 40.79, 109.5 42 M109.5 42 C83.72 39.97, 56.21 40.59, 10.5 42 M109.5 42 C86.67 40.24, 64.49 40.34, 10.5 42 M10.5 42 C2.94 43.5, 0.4 39.25, 0 31.5 M10.5 42 C1.27 41.83, -1.64 40, 0 31.5 M0 31.5 C-0.14 24.63, 0.66 16.81, 0 10.5 M0 31.5 C0.37 25.9, -0.25 20.38, 0 10.5 M0 10.5 C0.68 1.57, 3.56 -0.06, 10.5 0 M0 10.5 C-1.01 3.09, 2.03 -2.13, 10.5 0" stroke="#1e1e1e" stroke-width="2" fill="none"></path></g><g transform="translate(507.5458984375 400.996415697865) rotate(0 14.072265625 11.5)"><text x="14.072265625" y="0" font-family="Helvetica, Segoe UI Emoji" font-size="20px" fill="#1e1e1e" text-anchor="middle" style="white-space: pre;" direction="ltr" dominant-baseline="text-before-edge">Try</text></g><g stroke-linecap="round" transform="translate(461.6181640625 444.496415697865) rotate(0 60 21)"><path d="M10.5 0 C40.06 -0.17, 72.05 -3.43, 109.5 0 C116.53 2.8, 122.16 4.73, 120 10.5 C118.79 16.06, 119.44 22.41, 120 31.5 C123.51 39.45, 113.71 43.3, 109.5 42 C83.44 43.25, 58.72 46.07, 10.5 42 C0.75 44.58, 0.86 42.09, 0 31.5 C3.8 25.83, -2.21 18, 0 10.5 C-3.15 6.06, 1.3 2.86, 10.5 0" stroke="none" stroke-width="0" fill="#ffd43b"></path><path d="M10.5 0 C43.14 1.82, 73.91 1.7, 109.5 0 M10.5 0 C34.13 0.45, 56.55 0.59, 109.5 0 M109.5 0 C116.92 -0.92, 119.55 2.45, 120 10.5 M109.5 0 C114.46 -0.95, 118.3 2.44, 120 10.5 M120 10.5 C121.02 19.43, 120.24 26.86, 120 31.5 M120 10.5 C120.19 18.66, 121.05 25.44, 120 31.5 M120 31.5 C118.18 40.36, 115.74 40.95, 109.5 42 M120 31.5 C119.39 40.79, 115.52 43.47, 109.5 42 M109.5 42 C86.28 39.88, 64.3 40.79, 10.5 42 M109.5 42 C88.63 41.93, 68.51 41.56, 10.5 42 M10.5 42 C1.56 41.86, -1.43 39.8, 0 31.5 M10.5 42 C4.38 40.23, -2.26 38.16, 0 31.5 M0 31.5 C-0.47 25.18, -0.99 19.19, 0 10.5 M0 31.5 C0.39 23.67, 0.08 17.74, 0 10.5 M0 10.5 C-0.88 3.14, 2.22 -1.85, 10.5 0 M0 10.5 C1.22 4.24, 2.95 0.81, 10.5 0" stroke="#1e1e1e" stroke-width="2" fill="none"></path></g><g transform="translate(486.61328125 453.996415697865) rotate(0 35.0048828125 11.5)"><text x="35.0048828125" y="0" font-family="Helvetica, Segoe UI Emoji" font-size="20px" fill="#1e1e1e" text-anchor="middle" style="white-space: pre;" direction="ltr" dominant-baseline="text-before-edge">Confirm</text></g><g stroke-linecap="round" transform="translate(461.6181640625 497.496415697865) rotate(0 60 21)"><path d="M10.5 0 C43.49 3.83, 78.58 2.26, 109.5 0 C116.8 0.82, 121.05 2.21, 120 10.5 C123.44 17.22, 117.14 23.33, 120 31.5 C118.31 38.08, 118.82 40.99, 109.5 42 C76.77 46.03, 50.39 47.04, 10.5 42 C4.66 39.76, 1.09 42.07, 0 31.5 C-2.89 26.99, -1.94 20.23, 0 10.5 C0.92 5.96, 3.36 1.31, 10.5 0" stroke="none" stroke-width="0" fill="#ffd43b"></path><path d="M10.5 0 C43.57 -0.21, 78.64 0.86, 109.5 0 M10.5 0 C41.46 -0.7, 71.77 -0.77, 109.5 0 M109.5 0 C114.73 -0.83, 118.52 2.58, 120 10.5 M109.5 0 C118.44 -1.89, 117.75 4.87, 120 10.5 M120 10.5 C121.62 18.59, 119.14 25.1, 120 31.5 M120 10.5 C119.29 18.17, 119.82 23.45, 120 31.5 M120 31.5 C119.47 40.49, 115.65 43.28, 109.5 42 M120 31.5 C118.15 39.45, 115.37 40.32, 109.5 42 M109.5 42 C86.02 41.5, 64.57 41.08, 10.5 42 M109.5 42 C71.41 42.3, 34.54 43.02, 10.5 42 M10.5 42 C4.26 40.46, -1.96 38.2, 0 31.5 M10.5 42 C3.77 42.57, -0.56 38.02, 0 31.5 M0 31.5 C0.63 24.51, 1.31 19.11, 0 10.5 M0 31.5 C-0.45 27.05, -0.65 22.03, 0 10.5 M0 10.5 C1.06 4.14, 3.02 0.71, 10.5 0 M0 10.5 C0.63 3.96, 5.25 -1.82, 10.5 0" stroke="#1e1e1e" stroke-width="2" fill="none"></path></g><g transform="translate(490.490234375 506.996415697865) rotate(0 31.1279296875 11.5)"><text x="31.1279296875" y="0" font-family="Helvetica, Segoe UI Emoji" font-size="20px" fill="#1e1e1e" text-anchor="middle" style="white-space: pre;" direction="ltr" dominant-baseline="text-before-edge">Cancel</text></g><g stroke-linecap="round"><g transform="translate(165.48841780925147 517.4127037766556) rotate(0 44.060593016404454 47.85201411482012)" fill-rule="evenodd"><path d="M-2.14 -2.28 C-2.2 12.13, -2.23 70.58, -1.9 86.87 C-1.56 103.16, -0.89 93.14, -0.15 95.46 C0.6 97.78, -0.99 99.73, 2.58 100.8 C6.14 101.87, 13.93 101.51, 21.26 101.88 C28.59 102.24, 38.18 102.89, 46.59 103.01 C54.99 103.13, 64.8 103.5, 71.67 102.58 C78.54 101.66, 85.3 98.76, 87.82 97.5 C90.35 96.25, 87.08 96.73, 86.8 95.07 C86.52 93.42, 85.86 102.18, 86.16 87.57 C86.46 72.97, 88.42 22.39, 88.6 7.46 C88.79 -7.47, 88.13 -0.24, 87.26 -2 C86.38 -3.76, 86.53 -2.33, 83.33 -3.09 C80.13 -3.84, 74.84 -5.47, 68.05 -6.53 C61.25 -7.6, 50.8 -9.59, 42.55 -9.47 C34.31 -9.34, 25 -6.81, 18.57 -5.79 C12.14 -4.78, 6.81 -4.46, 3.97 -3.38 C1.14 -2.3, 2.47 0.24, 1.58 0.69 C0.69 1.15, -0.7 -0.76, -1.37 -0.62" stroke="none" stroke-width="0" fill="#228be6" fill-rule="evenodd"></path><path d="M-0.2 -0.61 C-0.12 13.73, 1.05 70.23, 0.96 86.13 C0.86 102.02, -1.44 92.56, -0.79 94.76 C-0.15 96.97, 1.39 98.01, 4.81 99.36 C8.24 100.71, 12.59 101.78, 19.76 102.87 C26.94 103.95, 39.2 105.89, 47.85 105.86 C56.5 105.84, 65.31 104.03, 71.66 102.72 C78.01 101.4, 83.4 99.05, 85.93 97.97 C88.47 96.89, 86.42 98.12, 86.85 96.24 C87.29 94.36, 88.2 101.48, 88.56 86.7 C88.91 71.91, 89 22.01, 88.98 7.53 C88.95 -6.95, 89.63 1.79, 88.43 -0.18 C87.23 -2.14, 84.7 -3.08, 81.78 -4.24 C78.86 -5.4, 77.52 -6.42, 70.9 -7.15 C64.29 -7.88, 50.32 -8.38, 42.09 -8.61 C33.85 -8.84, 27.9 -9.55, 21.5 -8.53 C15.1 -7.5, 7.22 -3.78, 3.69 -2.49 C0.15 -1.19, 1.03 -1.06, 0.28 -0.75 C-0.46 -0.44, -0.58 -0.84, -0.77 -0.63 M-1.77 1.68 C-1.82 16.22, -0.22 72.06, 0.36 87.7 C0.93 103.34, 0.87 93.45, 1.68 95.51 C2.48 97.58, 1.87 98.86, 5.2 100.08 C8.53 101.31, 14.85 101.96, 21.66 102.84 C28.47 103.72, 37.69 105.66, 46.06 105.39 C54.43 105.12, 65.42 102.59, 71.88 101.22 C78.35 99.86, 82.14 98.19, 84.88 97.22 C87.61 96.26, 87.52 97.31, 88.29 95.43 C89.07 93.55, 89.88 100.4, 89.53 85.95 C89.17 71.49, 86.5 23.09, 86.17 8.68 C85.83 -5.73, 88.22 1.75, 87.52 -0.51 C86.82 -2.77, 84.79 -3.74, 81.99 -4.89 C79.19 -6.04, 77.38 -6.74, 70.73 -7.42 C64.08 -8.09, 50.68 -8.89, 42.09 -8.92 C33.5 -8.96, 25.8 -8.32, 19.18 -7.63 C12.57 -6.94, 5.72 -5.91, 2.39 -4.77 C-0.95 -3.62, -0.61 -1.42, -0.83 -0.75 C-1.04 -0.07, 1.1 -0.67, 1.1 -0.7" stroke="#0a11d3" stroke-width="1" fill="none"></path></g></g><mask></mask><g stroke-linecap="round"><g transform="translate(166.17577939874883 582.7028318074431) rotate(0 44.15404313987264 4.448651936218255)"><path d="M0.67 0.07 C0.95 0.65, -0.47 1.76, 1.52 2.82 C3.51 3.88, 8.69 5.53, 12.63 6.46 C16.57 7.38, 19.35 7.71, 25.16 8.37 C30.97 9.03, 39.98 10.52, 47.5 10.43 C55.01 10.33, 63.95 9.09, 70.24 7.8 C76.53 6.52, 82.4 3.91, 85.23 2.72 C88.07 1.52, 86.68 1.26, 87.26 0.64 M-0.44 -0.93 C0.24 -0.2, 1.73 2.4, 3.81 3.79 C5.88 5.18, 8.45 6.52, 12 7.4 C15.55 8.28, 19.37 9, 25.11 9.06 C30.86 9.11, 38.8 8.13, 46.48 7.73 C54.17 7.32, 64.67 7.13, 71.23 6.62 C77.79 6.1, 82.83 5.58, 85.85 4.63 C88.86 3.67, 89.11 1.48, 89.34 0.87" stroke="#0a11d3" stroke-width="1" fill="none"></path></g></g><mask></mask><g stroke-linecap="round"><g transform="translate(165.08203788668737 549.6286772453714) rotate(0 44.15404313987264 4.448651936218255)"><path d="M-0.81 -1.09 C-0.49 -0.57, 0.49 1.94, 2.59 3.18 C4.7 4.43, 7.81 5.21, 11.81 6.39 C15.8 7.56, 20.91 9.8, 26.58 10.25 C32.25 10.69, 38.43 9.56, 45.83 9.07 C53.23 8.58, 64.58 8.06, 70.98 7.31 C77.38 6.56, 81.29 5.97, 84.24 4.58 C87.2 3.19, 87.85 -0.23, 88.7 -1.02 M0.97 0.96 C1.1 1.61, 0.16 3.29, 1.79 4.34 C3.42 5.4, 6.5 6.63, 10.75 7.28 C15 7.94, 21.14 7.92, 27.29 8.26 C33.43 8.59, 40.09 9.1, 47.6 9.31 C55.11 9.52, 66.24 10.45, 72.36 9.53 C78.48 8.61, 81.75 5.67, 84.34 3.81 C86.92 1.94, 87.23 -0.79, 87.87 -1.65" stroke="#0a11d3" stroke-width="1" fill="none"></path></g></g><mask></mask><g stroke-linecap="round" transform="translate(163.96121520052566 509.3880075495589) rotate(0 43.825373054270926 8.863351988406805)"><path d="M43.11 -0.37 C52.08 -0.59, 64.04 0.74, 71.3 1.91 C78.57 3.08, 84.82 4.77, 86.72 6.64 C88.62 8.52, 87.18 11.35, 82.7 13.16 C78.22 14.96, 68.62 16.81, 59.83 17.45 C51.04 18.09, 38.88 17.73, 29.95 16.98 C21.03 16.24, 11.12 14.48, 6.27 12.99 C1.41 11.49, -0.71 9.75, 0.81 8 C2.32 6.25, 7.97 3.82, 15.36 2.49 C22.75 1.16, 39.94 0.46, 45.17 0.02 C50.39 -0.43, 46.73 -0.39, 46.71 -0.19 M33.24 0.47 C41.66 0.11, 54.7 0.67, 63.09 1.47 C71.47 2.26, 79.66 3.65, 83.54 5.24 C87.42 6.84, 88.98 9.21, 86.38 11.03 C83.77 12.85, 75.79 15.09, 67.89 16.15 C60 17.21, 48.4 17.57, 39 17.41 C29.6 17.25, 18.01 16.54, 11.49 15.19 C4.98 13.85, 0.35 11.36, -0.1 9.34 C-0.55 7.32, 3.13 4.57, 8.81 3.07 C14.48 1.57, 29.79 0.67, 33.94 0.34 C38.08 0, 33.45 0.81, 33.67 1.06" stroke="none" stroke-width="0" fill="#fff"></path><path d="M39.23 -0.27 C48.06 -0.66, 60.11 0.41, 67.83 1.44 C75.54 2.47, 82.72 4.04, 85.5 5.89 C88.28 7.74, 88.22 10.66, 84.5 12.54 C80.79 14.43, 71.67 16.32, 63.22 17.21 C54.77 18.1, 42.89 18.39, 33.81 17.88 C24.72 17.37, 14.32 15.65, 8.72 14.13 C3.12 12.61, -0.32 10.7, 0.21 8.76 C0.75 6.82, 5.26 3.93, 11.92 2.52 C18.58 1.1, 35.33 0.67, 40.16 0.28 C45 -0.12, 40.82 0.03, 40.93 0.16 M36.96 0.42 C45.71 0.13, 58.41 0.61, 66.38 1.43 C74.35 2.26, 81.86 3.55, 84.78 5.38 C87.69 7.2, 87.25 10.53, 83.88 12.39 C80.51 14.25, 72.81 15.65, 64.56 16.55 C56.3 17.44, 43.48 18.22, 34.34 17.76 C25.2 17.31, 15.46 15.43, 9.72 13.81 C3.98 12.19, -0.29 9.89, -0.1 8.06 C0.09 6.23, 4.5 4.23, 10.86 2.84 C17.22 1.45, 33.65 0.15, 38.06 -0.29 C42.46 -0.72, 37.37 0.02, 37.28 0.24" stroke="#0a11d3" stroke-width="1" fill="none"></path></g><g stroke-linecap="round" transform="translate(235.47094750110625 533.9638104266924) rotate(0 6.423028523489904 6.970952181208077)"><path d="M7.51 0.05 C8.75 0.16, 10.22 0.77, 11.18 1.9 C12.14 3.04, 13.21 5.24, 13.26 6.87 C13.32 8.5, 12.4 10.56, 11.49 11.67 C10.58 12.78, 9.2 13.38, 7.82 13.53 C6.44 13.68, 4.38 13.19, 3.2 12.59 C2.02 12, 1.14 11.22, 0.74 9.96 C0.35 8.69, 0.37 6.49, 0.83 5 C1.28 3.51, 2.36 1.9, 3.48 1.02 C4.6 0.14, 6.8 -0.21, 7.56 -0.28 C8.32 -0.34, 8.14 0.4, 8.05 0.62 M5.1 0.61 C6.36 0.25, 7.93 0.29, 9.26 0.92 C10.58 1.55, 12.55 2.96, 13.06 4.38 C13.57 5.79, 12.9 7.99, 12.35 9.4 C11.79 10.81, 10.99 12.05, 9.71 12.83 C8.43 13.6, 6.08 14.31, 4.66 14.05 C3.25 13.79, 1.98 12.57, 1.23 11.27 C0.48 9.98, 0.06 7.77, 0.17 6.3 C0.28 4.83, 1.02 3.39, 1.87 2.46 C2.72 1.53, 4.57 0.98, 5.26 0.72 C5.95 0.47, 6.04 0.82, 6.04 0.95" stroke="none" stroke-width="0" fill="#fff"></path><path d="M7.47 0.09 C8.64 0.24, 10.08 0.91, 11.05 2.09 C12.02 3.27, 13.3 5.54, 13.3 7.18 C13.3 8.82, 12.02 10.74, 11.08 11.91 C10.13 13.09, 8.93 14.06, 7.62 14.24 C6.32 14.42, 4.43 13.72, 3.24 12.97 C2.06 12.21, 0.99 11.18, 0.51 9.73 C0.03 8.28, -0.14 5.71, 0.35 4.28 C0.84 2.85, 2.26 1.85, 3.44 1.15 C4.63 0.46, 6.63 0.22, 7.44 0.11 C8.26 -0.01, 8.36 0.39, 8.34 0.45 M5.12 0.17 C6.38 -0.27, 8.09 -0.43, 9.22 0.39 C10.34 1.22, 11.36 3.6, 11.88 5.12 C12.39 6.64, 12.82 8.14, 12.31 9.52 C11.79 10.89, 9.95 12.75, 8.79 13.37 C7.62 13.99, 6.59 13.68, 5.32 13.23 C4.06 12.78, 2.13 11.79, 1.21 10.67 C0.28 9.56, -0.41 8.01, -0.24 6.54 C-0.06 5.08, 1.33 2.97, 2.25 1.88 C3.16 0.8, 4.79 0.3, 5.24 0.04 C5.7 -0.23, 4.88 0.16, 4.98 0.29" stroke="#0a11d3" stroke-width="1" fill="none"></path></g><g stroke-linecap="round" transform="translate(235.47094750110625 564.5662642857528) rotate(0 6.423028523489904 6.970952181208077)"><path d="M5.14 -0.36 C6.46 -0.7, 8.75 0.06, 9.98 0.93 C11.2 1.79, 12.05 3.49, 12.49 4.83 C12.93 6.17, 13.13 7.71, 12.64 8.99 C12.16 10.26, 10.74 11.58, 9.58 12.47 C8.43 13.36, 6.96 14.43, 5.7 14.32 C4.45 14.21, 2.93 13.01, 2.04 11.8 C1.15 10.6, 0.48 8.68, 0.38 7.08 C0.28 5.48, 0.51 3.29, 1.45 2.18 C2.38 1.06, 5.3 0.69, 5.99 0.4 C6.68 0.1, 5.69 0.41, 5.59 0.42 M6.41 -0.08 C7.87 -0.21, 10.41 0.58, 11.47 1.63 C12.53 2.67, 12.68 4.68, 12.76 6.18 C12.83 7.68, 12.78 9.36, 11.93 10.65 C11.08 11.94, 9.04 13.49, 7.65 13.93 C6.26 14.36, 4.73 14.01, 3.59 13.27 C2.45 12.53, 1.32 10.79, 0.8 9.47 C0.28 8.15, 0.19 6.58, 0.47 5.33 C0.76 4.07, 1.32 2.71, 2.49 1.95 C3.66 1.18, 6.8 0.93, 7.48 0.75 C8.17 0.57, 6.81 0.83, 6.6 0.84" stroke="none" stroke-width="0" fill="#fff"></path><path d="M5.04 -0.34 C6.41 -0.63, 8.94 0.22, 10.14 1.13 C11.34 2.03, 11.84 3.62, 12.24 5.07 C12.65 6.51, 13 8.48, 12.57 9.81 C12.14 11.13, 10.85 12.28, 9.66 13.02 C8.46 13.76, 6.76 14.56, 5.39 14.25 C4.02 13.93, 2.28 12.33, 1.41 11.15 C0.55 9.96, 0.22 8.61, 0.19 7.15 C0.17 5.7, 0.23 3.57, 1.26 2.41 C2.28 1.24, 5.55 0.6, 6.35 0.17 C7.15 -0.27, 6.17 -0.21, 6.06 -0.18 M6.47 -0.66 C7.75 -0.57, 9.34 1.23, 10.4 2.4 C11.45 3.58, 12.68 4.92, 12.78 6.4 C12.88 7.89, 11.76 10.19, 11 11.32 C10.24 12.45, 9.49 12.97, 8.23 13.2 C6.98 13.42, 4.78 13.27, 3.46 12.68 C2.13 12.09, 0.74 10.99, 0.3 9.65 C-0.14 8.3, 0.45 6.05, 0.82 4.64 C1.19 3.22, 1.57 1.9, 2.52 1.15 C3.47 0.4, 5.71 0.29, 6.51 0.14 C7.31 -0.01, 7.23 0.24, 7.31 0.26" stroke="#0a11d3" stroke-width="1" fill="none"></path></g><g stroke-linecap="round" transform="translate(235.47094750110625 597.8270654602495) rotate(0 6.423028523489904 6.970952181208077)"><path d="M6.74 0.04 C8.07 0.07, 9.51 1, 10.53 1.89 C11.56 2.78, 12.65 4.04, 12.88 5.37 C13.11 6.7, 12.55 8.44, 11.91 9.87 C11.27 11.3, 10.21 13.29, 9.02 13.95 C7.84 14.61, 6.09 14.4, 4.8 13.84 C3.52 13.27, 2.08 11.96, 1.3 10.57 C0.51 9.17, -0.13 6.9, 0.08 5.48 C0.3 4.06, 1.58 2.92, 2.57 2.05 C3.57 1.18, 5.42 0.63, 6.06 0.27 C6.7 -0.09, 6.32 -0.16, 6.42 -0.13 M8.1 -0.26 C9.48 -0.1, 10.47 1.23, 11.29 2.39 C12.12 3.55, 13.13 5.17, 13.05 6.73 C12.98 8.28, 11.79 10.53, 10.84 11.7 C9.89 12.88, 8.59 13.66, 7.35 13.79 C6.1 13.92, 4.48 13.22, 3.37 12.49 C2.25 11.77, 1.18 10.65, 0.65 9.44 C0.13 8.22, -0.33 6.51, 0.19 5.22 C0.72 3.92, 2.61 2.39, 3.79 1.66 C4.96 0.92, 6.72 1, 7.24 0.79 C7.76 0.58, 6.86 0.46, 6.89 0.38" stroke="none" stroke-width="0" fill="#fff"></path><path d="M6.8 0.16 C8.12 0.2, 9.25 1.02, 10.26 2 C11.27 2.99, 12.56 4.68, 12.86 6.07 C13.17 7.47, 12.77 9.06, 12.09 10.37 C11.42 11.67, 10.14 13.43, 8.83 13.91 C7.52 14.4, 5.53 13.81, 4.24 13.29 C2.95 12.77, 1.83 12.02, 1.09 10.77 C0.35 9.52, -0.47 7.3, -0.2 5.81 C0.08 4.31, 1.66 2.84, 2.74 1.82 C3.81 0.8, 5.62 0.02, 6.23 -0.32 C6.85 -0.66, 6.35 -0.33, 6.43 -0.21 M5.99 0.25 C7.41 0.32, 9.65 0.69, 10.69 1.68 C11.72 2.68, 11.94 4.83, 12.18 6.24 C12.43 7.65, 12.8 9, 12.15 10.13 C11.5 11.27, 9.67 12.54, 8.27 13.06 C6.87 13.59, 4.92 13.84, 3.76 13.3 C2.6 12.76, 1.96 11.15, 1.31 9.85 C0.65 8.54, -0.29 6.86, -0.19 5.48 C-0.1 4.1, 0.69 2.46, 1.87 1.56 C3.04 0.66, 6.08 0.4, 6.86 0.08 C7.65 -0.24, 6.55 -0.54, 6.59 -0.36" stroke="#0a11d3" stroke-width="1" fill="none"></path></g><g transform="translate(189.5134290625 623.273496697865) rotate(0 19.4482421875 16.100000000000023)"><text x="0" y="0" font-family="Helvetica, Segoe UI Emoji" font-size="28px" fill="#1e1e1e" text-anchor="start" style="white-space: pre;" direction="ltr" dominant-baseline="text-before-edge">DB</text></g><g stroke-linecap="round"><g transform="translate(172.1181640625 188.322480447865) rotate(0 0.3042322691230197 52)"><path d="M0 0 C0.14 23.16, 0.27 46.32, 0.61 104 M0 0 C0.21 36.38, 0.43 72.76, 0.61 104" stroke="#1e1e1e" stroke-width="2" fill="none"></path></g><g transform="translate(172.1181640625 188.322480447865) rotate(0 0.3042322691230197 52)"><path d="M0.61 104 L-5.81 90.44 L6.87 90.37 L0.61 104" stroke="none" stroke-width="0" fill="#1e1e1e" fill-rule="evenodd"></path><path d="M0.61 104 C-0.82 100.98, -2.25 97.96, -5.81 90.44 M0.61 104 C-1.64 99.26, -3.88 94.52, -5.81 90.44 M-5.81 90.44 C-2.1 90.42, 1.62 90.4, 6.87 90.37 M-5.81 90.44 C-1.87 90.42, 2.07 90.4, 6.87 90.37 M6.87 90.37 C4.47 95.6, 2.07 100.83, 0.61 104 M6.87 90.37 C4.95 94.55, 3.03 98.73, 0.61 104 M0.61 104 C0.61 104, 0.61 104, 0.61 104 M0.61 104 C0.61 104, 0.61 104, 0.61 104" stroke="#1e1e1e" stroke-width="2" fill="none"></path></g></g><mask></mask><g stroke-linecap="round"><g transform="translate(164.83235661544794 397.4549120830201) rotate(0 7.653873580390908 54.68897505266551)"><path d="M0 0 C4.86 34.7, 9.71 69.4, 15.31 109.38 M0 0 C5.09 36.38, 10.18 72.77, 15.31 109.38" stroke="#1e1e1e" stroke-width="2" fill="none"></path></g><g transform="translate(164.83235661544794 397.4549120830201) rotate(0 7.653873580390908 54.68897505266551)"><path d="M15.31 109.38 L7.15 96.79 L19.7 95.04 L15.31 109.38" stroke="none" stroke-width="0" fill="#1e1e1e" fill-rule="evenodd"></path><path d="M15.31 109.38 C12.72 105.39, 10.13 101.39, 7.15 96.79 M15.31 109.38 C12.59 105.19, 9.88 101.01, 7.15 96.79 M7.15 96.79 C11.48 96.19, 15.82 95.58, 19.7 95.04 M7.15 96.79 C11.26 96.22, 15.36 95.64, 19.7 95.04 M19.7 95.04 C18.43 99.2, 17.15 103.37, 15.31 109.38 M19.7 95.04 C18.08 100.33, 16.46 105.62, 15.31 109.38 M15.31 109.38 C15.31 109.38, 15.31 109.38, 15.31 109.38 M15.31 109.38 C15.31 109.38, 15.31 109.38, 15.31 109.38" stroke="#1e1e1e" stroke-width="2" fill="none"></path></g></g><mask></mask><g transform="translate(44.1181640625 222.342011697865) rotate(0 51.1181640625 11.5)"><text x="0" y="0" font-family="Helvetica, Segoe UI Emoji" font-size="20px" fill="#1e1e1e" text-anchor="start" style="white-space: pre;" direction="ltr" dominant-baseline="text-before-edge">1. 启动事务</text></g><g transform="translate(10 449.842011697865) rotate(0 71.1181640625 11.5)"><text x="0" y="0" font-family="Helvetica, Segoe UI Emoji" font-size="20px" fill="#1e1e1e" text-anchor="start" style="white-space: pre;" direction="ltr" dominant-baseline="text-before-edge">2. 创建事务日志</text></g><g transform="translate(298.0876276584454 353.2043036727622) rotate(0 67.9638671875 11.5)"><text x="0" y="0" font-family="Helvetica, Segoe UI Emoji" font-size="20px" fill="#1e1e1e" text-anchor="start" style="white-space: pre;" direction="ltr" dominant-baseline="text-before-edge">3. 批量调用 Try</text></g><g stroke-linecap="round"><g transform="translate(241.2972978615838 394.6507678259576) rotate(0 -7.658354496911471 55.623837924936026)"><path d="M0 0 C-3.26 23.7, -6.53 47.41, -15.32 111.25 M0 0 C-3.74 27.14, -7.47 54.27, -15.32 111.25" stroke="#1e1e1e" stroke-width="1" fill="none"></path></g><g transform="translate(241.2972978615838 394.6507678259576) rotate(0 -7.658354496911471 55.623837924936026)"><path d="M-15.32 111.25 L-19.74 96.92 L-7.18 98.64 L-15.32 111.25" stroke="none" stroke-width="0" fill="#1e1e1e" fill-rule="evenodd"></path><path d="M-15.32 111.25 C-16.26 108.19, -17.2 105.14, -19.74 96.92 M-15.32 111.25 C-16.4 107.75, -17.48 104.26, -19.74 96.92 M-19.74 96.92 C-15.12 97.55, -10.5 98.19, -7.18 98.64 M-19.74 96.92 C-15.22 97.54, -10.69 98.16, -7.18 98.64 M-7.18 98.64 C-10.3 103.47, -13.41 108.29, -15.32 111.25 M-7.18 98.64 C-10.38 103.6, -13.58 108.56, -15.32 111.25 M-15.32 111.25 C-15.32 111.25, -15.32 111.25, -15.32 111.25 M-15.32 111.25 C-15.32 111.25, -15.32 111.25, -15.32 111.25" stroke="#1e1e1e" stroke-width="1" fill="none"></path></g></g><mask></mask><g transform="translate(246.76267876819867 433.1473526727767) rotate(0 71.1181640625 11.5)"><text x="0" y="0" font-family="Helvetica, Segoe UI Emoji" font-size="20px" fill="#1e1e1e" text-anchor="start" style="white-space: pre;" direction="ltr" dominant-baseline="text-before-edge">4. 更新事务日志</text></g><g transform="translate(251.59953423993232 214.68271386614353) rotate(0 51.1181640625 23)"><text x="0" y="0" font-family="Helvetica, Segoe UI Emoji" font-size="20px" fill="#1e1e1e" text-anchor="start" style="white-space: pre;" direction="ltr" dominant-baseline="text-before-edge">5. 事务成功</text><text x="0" y="23" font-family="Helvetica, Segoe UI Emoji" font-size="20px" fill="#1e1e1e" text-anchor="start" style="white-space: pre;" direction="ltr" dominant-baseline="text-before-edge">/失败响应</text></g><g stroke-linecap="round"><g transform="translate(243.47210554822016 293.8829454981749) rotate(0 -1.2092138679334141 -51.99619632113587)"><path d="M0 0 C-0.49 -21.26, -0.99 -42.52, -2.42 -103.99 M0 0 C-0.51 -21.78, -1.01 -43.57, -2.42 -103.99" stroke="#1e1e1e" stroke-width="1" fill="none"></path></g><g transform="translate(243.47210554822016 293.8829454981749) rotate(0 -1.2092138679334141 -51.99619632113587)"><path d="M-2.42 -103.99 L4.24 -90.55 L-8.44 -90.25 L-2.42 -103.99" stroke="none" stroke-width="0" fill="#1e1e1e" fill-rule="evenodd"></path><path d="M-2.42 -103.99 C-1.06 -101.24, 0.3 -98.5, 4.24 -90.55 M-2.42 -103.99 C-1.02 -101.18, 0.37 -98.36, 4.24 -90.55 M4.24 -90.55 C1.5 -90.49, -1.23 -90.42, -8.44 -90.25 M4.24 -90.55 C-0.16 -90.45, -4.56 -90.34, -8.44 -90.25 M-8.44 -90.25 C-6.13 -95.52, -3.82 -100.79, -2.42 -103.99 M-8.44 -90.25 C-6.51 -94.65, -4.59 -99.05, -2.42 -103.99 M-2.42 -103.99 C-2.42 -103.99, -2.42 -103.99, -2.42 -103.99 M-2.42 -103.99 C-2.42 -103.99, -2.42 -103.99, -2.42 -103.99" stroke="#1e1e1e" stroke-width="1" fill="none"></path></g></g><mask></mask><g stroke-linecap="round"><g transform="translate(297.7213260797863 326.57165414931364) rotate(0 49.78498519862404 -19.56723298851395)"><path d="M0 0 C30.29 -11.91, 60.58 -23.81, 99.57 -39.13 M0 0 C38.81 -15.25, 77.62 -30.51, 99.57 -39.13" stroke="#1e1e1e" stroke-width="1" fill="none"></path></g></g><mask></mask><g stroke-linecap="round"><g transform="translate(396.5437158079427 287.95064591339747) rotate(0 29.848483064079517 -52.766265497960376)"><path d="M0 0 C14.94 -26.4, 29.87 -52.81, 59.7 -105.53 M0 0 C16.33 -28.88, 32.67 -57.75, 59.7 -105.53" stroke="#1e1e1e" stroke-width="1" fill="none"></path></g><g transform="translate(396.5437158079427 287.95064591339747) rotate(0 29.848483064079517 -52.766265497960376)"><path d="M59.7 -105.53 L58.52 -90.58 L47.49 -96.82 L59.7 -105.53" stroke="none" stroke-width="0" fill="#1e1e1e" fill-rule="evenodd"></path><path d="M59.7 -105.53 C59.4 -101.79, 59.11 -98.05, 58.52 -90.58 M59.7 -105.53 C59.38 -101.44, 59.05 -97.35, 58.52 -90.58 M58.52 -90.58 C56.01 -92, 53.5 -93.42, 47.49 -96.82 M58.52 -90.58 C55.49 -92.29, 52.46 -94, 47.49 -96.82 M47.49 -96.82 C50.39 -98.89, 53.29 -100.96, 59.7 -105.53 M47.49 -96.82 C50.85 -99.22, 54.21 -101.61, 59.7 -105.53 M59.7 -105.53 C59.7 -105.53, 59.7 -105.53, 59.7 -105.53 M59.7 -105.53 C59.7 -105.53, 59.7 -105.53, 59.7 -105.53" stroke="#1e1e1e" stroke-width="1" fill="none"></path></g></g><mask></mask><g stroke-linecap="round"><g transform="translate(396.89014123554387 288.0264564344129) rotate(0 31.003576388814338 59.453917075020456)"><path d="M0 0 C19.29 36.99, 38.58 73.97, 62.01 118.91 M0 0 C23.05 44.21, 46.11 88.41, 62.01 118.91" stroke="#1e1e1e" stroke-width="1" fill="none"></path></g><g transform="translate(396.89014123554387 288.0264564344129) rotate(0 31.003576388814338 59.453917075020456)"><path d="M62.01 118.91 L50.1 109.78 L61.34 103.92 L62.01 118.91" stroke="none" stroke-width="0" fill="#1e1e1e" fill-rule="evenodd"></path><path d="M62.01 118.91 C58.3 116.07, 54.6 113.23, 50.1 109.78 M62.01 118.91 C57.58 115.52, 53.15 112.12, 50.1 109.78 M50.1 109.78 C53.91 107.8, 57.73 105.81, 61.34 103.92 M50.1 109.78 C53.67 107.92, 57.24 106.06, 61.34 103.92 M61.34 103.92 C61.6 109.8, 61.86 115.68, 62.01 118.91 M61.34 103.92 C61.54 108.36, 61.74 112.79, 62.01 118.91 M62.01 118.91 C62.01 118.91, 62.01 118.91, 62.01 118.91 M62.01 118.91 C62.01 118.91, 62.01 118.91, 62.01 118.91" stroke="#1e1e1e" stroke-width="1" fill="none"></path></g></g><mask></mask><g transform="translate(303.3541733637927 561.9931083950338) rotate(0 94.462890625 11.5)"><text x="0" y="0" font-family="Helvetica, Segoe UI Emoji" font-size="20px" fill="#1e1e1e" text-anchor="start" style="white-space: pre;" direction="ltr" dominant-baseline="text-before-edge">6.1 批量调用 Confirm</text></g><g transform="translate(303.3541732499896 597.116707569558) rotate(0 90.58593749999997 11.5)"><text x="0" y="0" font-family="Helvetica, Segoe UI Emoji" font-size="20px" fill="#1e1e1e" text-anchor="start" style="white-space: pre;" direction="ltr" dominant-baseline="text-before-edge">6.2 批量调用 Cancel</text></g></svg>